<svg width="1440" height="1172" viewBox="0 0 1440 1172" fill="none" xmlns="http://www.w3.org/2000/svg">
<g style="mix-blend-mode:multiply">
<rect width="1440" height="1121" fill="url(#paint0_linear_47_6413)"/>
</g>
<mask id="mask0_47_6413" style="mask-type:alpha" maskUnits="userSpaceOnUse" x="0" y="148" width="1440" height="1024">
<rect y="148" width="1440" height="1024" fill="url(#paint1_linear_47_6413)"/>
</mask>
<g mask="url(#mask0_47_6413)">
<g style="mix-blend-mode:overlay" filter="url(#filter0_i_47_6413)">
<path d="M1272.9 736C1129.81 673 1097.61 578.339 918.496 565.368C739.386 552.397 526 311 381.077 269.095C236.155 227.19 92.8838 278.482 2.13883e-07 350L1.78682e-06 1056L1440 1056L1440 798C1440 798 1415.99 799 1272.9 736Z" fill="url(#paint2_linear_47_6413)" fill-opacity="0.3"/>
</g>
<g style="mix-blend-mode:overlay">
<path d="M1236.27 710C1073.17 688.266 1014.13 545.398 773.983 554C533.833 562.602 423.764 438 242.651 438C61.5375 438 2.13884e-07 534 2.13884e-07 534L1.39916e-06 1066L1440 1066L1440 683C1440 683 1399.37 731.733 1236.27 710Z" fill="url(#paint3_linear_47_6413)" fill-opacity="0.8"/>
</g>
</g>
<defs>
<filter id="filter0_i_47_6413" x="0" y="254" width="1440" height="802" filterUnits="userSpaceOnUse" color-interpolation-filters="sRGB">
<feFlood flood-opacity="0" result="BackgroundImageFix"/>
<feBlend mode="normal" in="SourceGraphic" in2="BackgroundImageFix" result="shape"/>
<feColorMatrix in="SourceAlpha" type="matrix" values="0 0 0 0 0 0 0 0 0 0 0 0 0 0 0 0 0 0 127 0" result="hardAlpha"/>
<feOffset dy="1"/>
<feComposite in2="hardAlpha" operator="arithmetic" k2="-1" k3="1"/>
<feColorMatrix type="matrix" values="0 0 0 0 1 0 0 0 0 1 0 0 0 0 1 0 0 0 0.25 0"/>
<feBlend mode="normal" in2="shape" result="effect1_innerShadow_47_6413"/>
</filter>
<linearGradient id="paint0_linear_47_6413" x1="720" y1="0" x2="720" y2="1121" gradientUnits="userSpaceOnUse">
<stop stop-color="white"/>
<stop offset="0.372917" stop-color="#7EA7CC"/>
<stop offset="1" stop-color="white" stop-opacity="0"/>
</linearGradient>
<linearGradient id="paint1_linear_47_6413" x1="1440" y1="694" x2="8.1239e-05" y2="692" gradientUnits="userSpaceOnUse">
<stop stop-color="#D9D9D9" stop-opacity="0"/>
<stop offset="0.31107" stop-color="#D9D9D9"/>
<stop offset="0.720793" stop-color="#D9D9D9"/>
<stop offset="1" stop-color="#D9D9D9" stop-opacity="0"/>
</linearGradient>
<linearGradient id="paint2_linear_47_6413" x1="734.125" y1="274" x2="734.125" y2="816.864" gradientUnits="userSpaceOnUse">
<stop stop-color="#D9D9D9"/>
<stop offset="1" stop-color="#D9D9D9" stop-opacity="0"/>
</linearGradient>
<linearGradient id="paint3_linear_47_6413" x1="757.524" y1="438" x2="757.524" y2="873.905" gradientUnits="userSpaceOnUse">
<stop stop-color="#D9D9D9"/>
<stop offset="1" stop-color="#D9D9D9" stop-opacity="0"/>
</linearGradient>
</defs>
</svg>
